<?xml version="1.0"?>
<svg xmlns="http://www.w3.org/2000/svg" xmlns:xlink="http://www.w3.org/1999/xlink" version="1.1" id="Capa_1" x="0px" y="0px" viewBox="0 0 121.669 121.669" style="enable-background:new 0 0 121.669 121.669;" xml:space="preserve" width="512px" height="512px" class=""><g><g>
	<path d="M60.835,121.669c-33.544,0-60.834-27.29-60.834-60.835C0.001,27.29,27.291,0,60.835,0s60.834,27.29,60.834,60.834   C121.669,94.379,94.379,121.669,60.835,121.669z M60.835,6C30.6,6,6.001,30.599,6.001,60.834c0,30.236,24.599,54.835,54.834,54.835   s54.834-24.599,54.834-54.835C115.669,30.599,91.071,6,60.835,6z" data-original="#000000" class="active-path" data-old_color="#000000" fill="#FFFFFF"/>
	<path d="M60.636,100.436c-10.04,0-18.208-7.281-18.208-16.231h6c0,5.642,5.477,10.231,12.208,10.231s12.208-4.59,12.208-10.231h6   C78.844,93.154,70.676,100.436,60.636,100.436z" data-original="#000000" class="active-path" data-old_color="#000000" fill="#FFFFFF"/>
	<polygon points="21.779,72.61 18.872,67.362 30.657,60.835 18.872,54.308 21.779,49.059 43.041,60.835  " data-original="#000000" class="active-path" data-old_color="#000000" fill="#FFFFFF"/>
	<polygon points="99.891,72.61 78.628,60.835 99.891,49.059 102.797,54.308 91.013,60.835 102.797,67.362  " data-original="#000000" class="active-path" data-old_color="#000000" fill="#FFFFFF"/>
</g></g> </svg>
